<svg version="1.1" id="el_9OBJHmbdFf" xmlns="http://www.w3.org/2000/svg" xmlns:xlink="http://www.w3.org/1999/xlink" x="0px" y="0px" viewBox="0 0 122 116" style="enable-background:new 0 0 122.1 116.6;" xml:space="preserve"><style>@-webkit-keyframes el_O6ktF9vm0Ru_0OsAMVu0M_Animation{0%{-webkit-transform: translate(29.800000190734863px, 93.0999984741211px) rotate(0deg) translate(-29.800000190734863px, -93.0999984741211px);transform: translate(29.800000190734863px, 93.0999984741211px) rotate(0deg) translate(-29.800000190734863px, -93.0999984741211px);}100%{-webkit-transform: translate(29.800000190734863px, 93.0999984741211px) rotate(360deg) translate(-29.800000190734863px, -93.0999984741211px);transform: translate(29.800000190734863px, 93.0999984741211px) rotate(360deg) translate(-29.800000190734863px, -93.0999984741211px);}}@keyframes el_O6ktF9vm0Ru_0OsAMVu0M_Animation{0%{-webkit-transform: translate(29.800000190734863px, 93.0999984741211px) rotate(0deg) translate(-29.800000190734863px, -93.0999984741211px);transform: translate(29.800000190734863px, 93.0999984741211px) rotate(0deg) translate(-29.800000190734863px, -93.0999984741211px);}100%{-webkit-transform: translate(29.800000190734863px, 93.0999984741211px) rotate(360deg) translate(-29.800000190734863px, -93.0999984741211px);transform: translate(29.800000190734863px, 93.0999984741211px) rotate(360deg) translate(-29.800000190734863px, -93.0999984741211px);}}@-webkit-keyframes el_sRe5EBzYRsk_9nHDrzdDj_Animation{0%{-webkit-transform: translate(90.99999618530273px, 93.0999984741211px) rotate(0deg) translate(-90.99999618530273px, -93.0999984741211px);transform: translate(90.99999618530273px, 93.0999984741211px) rotate(0deg) translate(-90.99999618530273px, -93.0999984741211px);}100%{-webkit-transform: translate(90.99999618530273px, 93.0999984741211px) rotate(360deg) translate(-90.99999618530273px, -93.0999984741211px);transform: translate(90.99999618530273px, 93.0999984741211px) rotate(360deg) translate(-90.99999618530273px, -93.0999984741211px);}}@keyframes el_sRe5EBzYRsk_9nHDrzdDj_Animation{0%{-webkit-transform: translate(90.99999618530273px, 93.0999984741211px) rotate(0deg) translate(-90.99999618530273px, -93.0999984741211px);transform: translate(90.99999618530273px, 93.0999984741211px) rotate(0deg) translate(-90.99999618530273px, -93.0999984741211px);}100%{-webkit-transform: translate(90.99999618530273px, 93.0999984741211px) rotate(360deg) translate(-90.99999618530273px, -93.0999984741211px);transform: translate(90.99999618530273px, 93.0999984741211px) rotate(360deg) translate(-90.99999618530273px, -93.0999984741211px);}}#el_9OBJHmbdFf *{-webkit-animation-duration: 1s;animation-duration: 1s;-webkit-animation-iteration-count: infinite;animation-iteration-count: infinite;-webkit-animation-timing-function: cubic-bezier(0, 0, 1, 1);animation-timing-function: cubic-bezier(0, 0, 1, 1);}#el_D5rwUWHz0E{fill: #CC2E43;}#el_Gyyh4mqMuT{fill: #293939;}#el_MQgcv4rqXQ{fill: #293939;}#el_3zbyM4nok6{fill: #384949;}#el_3-Zs9rW72o{fill: #AE2538;}#el_o6Pr0iUdc14{fill: #E63950;}#el_IeLFbWoDfH7{fill: #4A696F;}#el_m1hDFdgr8-B{fill: #C6E2E7;stroke: #384949;stroke-width: 7;stroke-miterlimit: 10;}#el_M4j_1dniVQg{fill: none;stroke: #384949;stroke-width: 2;stroke-miterlimit: 10;}#el_zSL5nMYefCR{fill: #C6E2E7;stroke: #384949;stroke-miterlimit: 10;}#el_OdwGtZ52kpx{fill: #C6E2E7;stroke: #384949;stroke-miterlimit: 10;}#el_0p4-56RsAQE{fill: #C6E2E7;stroke: #384949;stroke-miterlimit: 10;}#el_b67GSv2clYl{fill: #C6E2E7;stroke: #384949;stroke-miterlimit: 10;}#el_UosdE-9pgDV{fill: #C6E2E7;stroke: #384949;stroke-miterlimit: 10;}#el_GMporKCHL3g{fill: #C6E2E7;stroke: #384949;stroke-miterlimit: 10;}#el_orYIihNrI_h{fill: #C6E2E7;stroke: #384949;stroke-miterlimit: 10;}#el_5K59rBud07A{fill: #C6E2E7;stroke: #384949;stroke-miterlimit: 10;}#el_ShZX0m7jL4p{fill: #C6E2E7;stroke: #384949;stroke-width: 7;stroke-miterlimit: 10;}#el_w75ioMmoSrX{fill: none;stroke: #384949;stroke-width: 2;stroke-miterlimit: 10;}#el_w-gMTj6Wqnp{fill: #C6E2E7;stroke: #384949;stroke-miterlimit: 10;}#el_K7FRVkCT3Xa{fill: #C6E2E7;stroke: #384949;stroke-miterlimit: 10;}#el__gPLWjyUjNi{fill: #C6E2E7;stroke: #384949;stroke-miterlimit: 10;}#el_23jnsS0TCGQ{fill: #C6E2E7;stroke: #384949;stroke-miterlimit: 10;}#el_wSp1NnDUBS3{fill: #C6E2E7;stroke: #384949;stroke-miterlimit: 10;}#el_b_PUKLA4elQ{fill: #C6E2E7;stroke: #384949;stroke-miterlimit: 10;}#el_bZzmb7TVO8H{fill: #C6E2E7;stroke: #384949;stroke-miterlimit: 10;}#el_JYQcIYzakyu{fill: #C6E2E7;stroke: #384949;stroke-miterlimit: 10;}#el_gxQM80puGiu{fill: #EC5569;}#el_lmW8Vz5fNhT{fill: #E63950;}#el_sRe5EBzYRsk_9nHDrzdDj{-webkit-animation-name: el_sRe5EBzYRsk_9nHDrzdDj_Animation;animation-name: el_sRe5EBzYRsk_9nHDrzdDj_Animation;-webkit-transform: translate(90.99999618530273px, 93.0999984741211px) rotate(0deg) translate(-90.99999618530273px, -93.0999984741211px);transform: translate(90.99999618530273px, 93.0999984741211px) rotate(0deg) translate(-90.99999618530273px, -93.0999984741211px);}#el_O6ktF9vm0Ru_0OsAMVu0M{-webkit-transform: translate(29.800000190734863px, 93.0999984741211px) rotate(0deg) translate(-29.800000190734863px, -93.0999984741211px);transform: translate(29.800000190734863px, 93.0999984741211px) rotate(0deg) translate(-29.800000190734863px, -93.0999984741211px);-webkit-animation-name: el_O6ktF9vm0Ru_0OsAMVu0M_Animation;animation-name: el_O6ktF9vm0Ru_0OsAMVu0M_Animation;}</style>

<path d="M93.6,42.6v30.3c0,1.7-1.3,3-3,3c-7.8,0-14.2,6-15,13.6l-6.2,4.5H51.2l-6.3-5.6c-1.3-7.1-7.4-12.5-14.9-12.5&#10;&#9;c-5.7,0-10.8,3.1-13.5,8.2c-0.5,1-1.5,1.6-2.6,1.6c-1.1,0.1-1.4-0.5-1.9-1.6l-0.5-1C6.3,74.6,8.3,63.2,17,57.8l16.3-8.5l11.8,8.5&#10;&#9;l-0.7,0.4l5.9,17.7h19V54.8c0-8.4,6.8-15.1,15.1-15.1h6.1C92.3,39.6,93.6,40.9,93.6,42.6z" id="el_D5rwUWHz0E"/>
<path d="M78.4,39.6H66.3c-1.7,0-3-1.4-3-3c0-1.7,1.4-3,3-3h12.1c1.7,0,3,1.4,3,3C81.5,38.3,80.1,39.6,78.4,39.6z" id="el_Gyyh4mqMuT"/>
<path d="M84.5,15.4H73.2v6.1h8.3v9.1c0,1.7,1.4,3,3,3s3-1.4,3-3V18.4C87.5,16.8,86.2,15.4,84.5,15.4z" id="el_MQgcv4rqXQ"/>
<path d="M15.5,57.8c-4.1,0-6.9-2.7-6.9-6.1c0-3.3,2.7-6.1,6.1-6.1h30.3c3.3,0,6.1,2.7,6.1,6.1c0,3.3-2.7,6.1-5.2,6.1&#10;&#9;H15.5z" id="el_3zbyM4nok6"/>
<path d="M93.6,42.6v30.3c0,1.7-1.3,3-3,3c-7.8,0-14.2,6-15,13.6l-6.2,4.5h-9.1V75.9h9.1V54.8c0-8.4,6.8-15.1,15.1-15.1&#10;&#9;h6.1C92.3,39.6,93.6,40.9,93.6,42.6z" id="el_3-Zs9rW72o"/>
<path d="M96.6,45.7H84.5c-5,0-9.1-4.1-9.1-9.1s4.1-9.1,9.1-9.1h12.1c1.7,0,3,1.4,3,3v12.1&#10;&#9;C99.6,44.3,98.3,45.7,96.6,45.7z" id="el_o6Pr0iUdc14"/>
<path d="M72.4,27.5c-1.7,0-3-1.4-3-3V12.4c0-1.7,1.4-3,3-3c1.7,0,3,1.4,3,3v12.1C75.4,26.2,74.1,27.5,72.4,27.5z" id="el_IeLFbWoDfH7"/>
<g id="el_sRe5EBzYRsk_9nHDrzdDj" data-animator-group="true" data-animator-type="1"><g id="el_sRe5EBzYRsk">
	<circle cx="91" cy="93.1" r="12.9" id="el_m1hDFdgr8-B"/>
	<circle cx="91" cy="93.1" r="3" id="el_M4j_1dniVQg"/>
	<line x1="91" y1="96.1" x2="91" y2="106" id="el_zSL5nMYefCR"/>
	<line x1="91" y1="90.1" x2="91" y2="80.2" id="el_OdwGtZ52kpx"/>
	<line x1="94" y1="93.1" x2="103.8" y2="93.1" id="el_0p4-56RsAQE"/>
	<line x1="87.9" y1="93.1" x2="78.1" y2="93.1" id="el_b67GSv2clYl"/>
	<line x1="89" y1="90.8" x2="81.5" y2="84.4" id="el_UosdE-9pgDV"/>
	<line x1="89" y1="95.4" x2="83" y2="103.2" id="el_GMporKCHL3g"/>
	<line x1="93" y1="95.4" x2="100.1" y2="102.2" id="el_orYIihNrI_h"/>
	<line x1="93" y1="90.8" x2="100.1" y2="84" id="el_5K59rBud07A"/>
</g></g>
<g id="el_O6ktF9vm0Ru_0OsAMVu0M" data-animator-group="true" data-animator-type="1"><g id="el_O6ktF9vm0Ru">
	<circle cx="29.8" cy="93.1" r="12.9" id="el_ShZX0m7jL4p"/>
	<circle cx="29.8" cy="93.1" r="3" id="el_w75ioMmoSrX"/>
	<line x1="29.8" y1="96.1" x2="29.8" y2="106" id="el_w-gMTj6Wqnp"/>
	<line x1="29.8" y1="90.1" x2="29.8" y2="80.2" id="el_K7FRVkCT3Xa"/>
	<line x1="32.8" y1="93.1" x2="42.7" y2="93.1" id="el__gPLWjyUjNi"/>
	<line x1="26.8" y1="93.1" x2="17" y2="93.1" id="el_23jnsS0TCGQ"/>
	<line x1="27.8" y1="90.8" x2="20.3" y2="84.4" id="el_wSp1NnDUBS3"/>
	<line x1="27.8" y1="95.4" x2="21.9" y2="103.2" id="el_b_PUKLA4elQ"/>
	<line x1="31.8" y1="95.4" x2="38.9" y2="102.2" id="el_bZzmb7TVO8H"/>
	<line x1="31.8" y1="90.8" x2="38.9" y2="84" id="el_JYQcIYzakyu"/>
</g></g>
<path d="M51.2,94.1H11.6c-1.7,0-3-1.4-3-3c0-3.3,1-6.7,2.5-9.7C14.8,74.3,22,69.9,30,69.9c11.7,0,21.2,9.5,21.2,21.2&#10;&#9;V94.1z" id="el_gxQM80puGiu"/>
<path d="M112,91.1c0,1.7-1.4,3-3,3H69.4v-3c0-11.7,9.5-21.2,21.2-21.2S112,79.4,112,91.1z" id="el_lmW8Vz5fNhT"/>
</svg>